999
dxflib 3.17.0.0
  0
SECTION
  2
HEADER
  9
$ACADVER
  1
AC1015
  9
$HANDSEED
  5
FFFF
  9
$DIMADEC
 70
0
  9
$DIMASZ
 40
2.5
  9
$DIMAUNIT
 70
0
  9
$DIMAZIN
 70
2
  9
$DIMDEC
 70
4
  9
$DIMDLI
 40
5.0
  9
$DIMDSEP
 70
46
  9
$DIMEXE
 40
1.25
  9
$DIMEXO
 40
0.625
  9
$DIMGAP
 40
0.625
  9
$DIMLUNIT
 70
2
  9
$DIMSCALE
 40
1.0
  9
$DIMTSZ
 40
0.0
  9
$DIMTXT
 40
2.5
  9
$DIMZIN
 70
8
  9
$DWGCODEPAGE
  3
ANSI_1252
  9
$INSUNITS
 70
4
  9
$LTSCALE
 40
1.0
  9
$MAXACTVP
 70
64
  9
$MEASUREMENT
 70
1
  9
$PDMODE
 70
0
  9
$PDSIZE
 40
0.0
  0
ENDSEC
  0
SECTION
  2
TABLES
  0
TABLE
  2
VPORT
  5
8
100
AcDbSymbolTable
 70
1
  0
VPORT
  5
30
100
AcDbSymbolTableRecord
100
AcDbViewportTableRecord
  2
*Active
 70
0
 10
0.0
 20
0.0
 11
1.0
 21
1.0
 12
286.30555555555549
 22
148.5
 13
0.0
 23
0.0
 14
10.0
 24
10.0
 15
10.0
 25
10.0
 16
0.0
 26
0.0
 36
1.0
 17
0.0
 27
0.0
 37
0.0
 40
297.0
 41
1.92798353909465
 42
50.0
 43
0.0
 44
0.0
 50
0.0
 51
0.0
 71
0
 72
100
 73
1
 74
3
 75
1
 76
1
 77
0
 78
0
281
0
 65
1
110
0.0
120
0.0
130
0.0
111
1.0
121
0.0
131
0.0
112
0.0
122
1.0
132
0.0
 79
0
146
0.0
  0
ENDTAB
  0
TABLE
  2
LTYPE
  5
5
100
AcDbSymbolTable
 70
41
  0
LTYPE
  5
16
100
AcDbSymbolTableRecord
100
AcDbLinetypeTableRecord
  2
Continuous
 70
0
  3
Solid line
 72
65
 73
0
 40
0.0
  0
LTYPE
  5
31
100
AcDbSymbolTableRecord
100
AcDbLinetypeTableRecord
  2
DASHDOT
 70
0
  3
Dash dot __ . __ . __ . __ . __ . __ . __ . __
 72
65
 73
4
 40
25.400000000000002
 49
12.699999999999999
 74
0
 49
-6.2999999999999998
 74
0
 49
0.1
 74
0
 49
-6.2999999999999998
 74
0
  0
LTYPE
  5
32
100
AcDbSymbolTableRecord
100
AcDbLinetypeTableRecord
  2
DASHED
 70
0
  3
Dashed __ __ __ __ __ __ __ __ __ __ __ __ __ _
 72
65
 73
2
 40
19.049999999999997
 49
12.699999999999999
 74
0
 49
-6.3499999999999996
 74
0
  0
LTYPE
  5
33
100
AcDbSymbolTableRecord
100
AcDbLinetypeTableRecord
  2
CENTER
 70
0
  3
Center ____ _ ____ _ ____ _ ____ _ ____ _ ____
 72
65
 73
4
 40
50.800000000000004
 49
31.75
 74
0
 49
-6.3499999999999996
 74
0
 49
6.3499999999999996
 74
0
 49
-6.3499999999999996
 74
0
  0
LTYPE
  5
34
100
AcDbSymbolTableRecord
100
AcDbLinetypeTableRecord
  2
ACAD_ISO04W100
 70
0
  3
ISO long-dash dot ____ . ____ . ____ . ____ . _
 72
65
 73
4
 40
30.0
 49
24.0
 74
0
 49
-2.9500000000000002
 74
0
 49
0.1
 74
0
 49
-2.9500000000000002
 74
0
  0
LTYPE
  5
35
100
AcDbSymbolTableRecord
100
AcDbLinetypeTableRecord
  2
HIDDEN
 70
0
  3
Hidden __ __ __ __ __ __ __ __ __ __ __ __ __ __
 72
65
 73
2
 40
9.5249999999999986
 49
6.3499999999999996
 74
0
 49
-3.1749999999999998
 74
0
  0
LTYPE
  5
36
100
AcDbSymbolTableRecord
100
AcDbLinetypeTableRecord
  2
DIVIDE2
 70
0
  3
Divide (.5x) __..__..__..__..__..__..__..__.._
 72
65
 73
6
 40
15.874999999999998
 49
6.3499999999999996
 74
0
 49
-3.125
 74
0
 49
0.1
 74
0
 49
-3.0750000000000002
 74
0
 49
0.1
 74
0
 49
-3.125
 74
0
  0
LTYPE
  5
14
100
AcDbSymbolTableRecord
100
AcDbLinetypeTableRecord
  2
BYBLOCK
 70
0
  3

 72
65
 73
0
 40
0.0
  0
LTYPE
  5
37
100
AcDbSymbolTableRecord
100
AcDbLinetypeTableRecord
  2
CENTERX2
 70
0
  3
Center (2x) ________  __  ________  __  _____
 72
65
 73
4
 40
101.60000000000001
 49
63.5
 74
0
 49
-12.699999999999999
 74
0
 49
12.699999999999999
 74
0
 49
-12.699999999999999
 74
0
  0
LTYPE
  5
15
100
AcDbSymbolTableRecord
100
AcDbLinetypeTableRecord
  2
BYLAYER
 70
0
  3

 72
65
 73
0
 40
0.0
  0
LTYPE
  5
38
100
AcDbSymbolTableRecord
100
AcDbLinetypeTableRecord
  2
ACAD_ISO03W100
 70
0
  3
ISO dash space __    __    __    __    __    __
 72
65
 73
2
 40
30.0
 49
12.0
 74
0
 49
-18.0
 74
0
  0
LTYPE
  5
39
100
AcDbSymbolTableRecord
100
AcDbLinetypeTableRecord
  2
HIDDENX2
 70
0
  3
Hidden (2x) ____ ____ ____ ____ ____ ____ ____ 
 72
65
 73
2
 40
19.049999999999997
 49
12.699999999999999
 74
0
 49
-6.3499999999999996
 74
0
  0
LTYPE
  5
3A
100
AcDbSymbolTableRecord
100
AcDbLinetypeTableRecord
  2
ACAD_ISO06W100
 70
0
  3
ISO long-dash triple-dot ____ ... ____ ... ____
 72
65
 73
8
 40
36.000000000000007
 49
24.0
 74
0
 49
-2.9500000000000002
 74
0
 49
0.1
 74
0
 49
-2.9000000000000004
 74
0
 49
0.1
 74
0
 49
-2.9000000000000004
 74
0
 49
0.1
 74
0
 49
-2.9500000000000002
 74
0
  0
LTYPE
  5
3B
100
AcDbSymbolTableRecord
100
AcDbLinetypeTableRecord
  2
DOTX2
 70
0
  3
Dot (2x) .  .  .  .  .  .  .  .  .  .  .  .  .  .
 72
65
 73
2
 40
12.699999999999999
 49
0.1
 74
0
 49
-12.6
 74
0
  0
LTYPE
  5
3C
100
AcDbSymbolTableRecord
100
AcDbLinetypeTableRecord
  2
PHANTOM2
 70
0
  3
Phantom (.5x) ___ _ _ ___ _ _ ___ _ _ ___ _ _
 72
65
 73
6
 40
31.750000000000004
 49
15.875
 74
0
 49
-3.1749999999999998
 74
0
 49
3.1749999999999998
 74
0
 49
-3.1749999999999998
 74
0
 49
3.1749999999999998
 74
0
 49
-3.1749999999999998
 74
0
  0
LTYPE
  5
3D
100
AcDbSymbolTableRecord
100
AcDbLinetypeTableRecord
  2
DASHDOTX2
 70
0
  3
Dash dot (2x) ____  .  ____  .  ____  .  ___
 72
65
 73
4
 40
50.799999999999997
 49
25.399999999999999
 74
0
 49
-12.649999999999999
 74
0
 49
0.1
 74
0
 49
-12.649999999999999
 74
0
  0
LTYPE
  5
3E
100
AcDbSymbolTableRecord
100
AcDbLinetypeTableRecord
  2
PHANTOMX2
 70
0
  3
Phantom (2x) ____________    ____    ____   _
 72
65
 73
6
 40
127.00000000000001
 49
63.5
 74
0
 49
-12.699999999999999
 74
0
 49
12.699999999999999
 74
0
 49
-12.699999999999999
 74
0
 49
12.699999999999999
 74
0
 49
-12.699999999999999
 74
0
  0
LTYPE
  5
3F
100
AcDbSymbolTableRecord
100
AcDbLinetypeTableRecord
  2
PHANTOM
 70
0
  3
Phantom ______  __  __  ______  __  __  ______ 
 72
65
 73
6
 40
63.500000000000007
 49
31.75
 74
0
 49
-6.3499999999999996
 74
0
 49
6.3499999999999996
 74
0
 49
-6.3499999999999996
 74
0
 49
6.3499999999999996
 74
0
 49
-6.3499999999999996
 74
0
  0
LTYPE
  5
40
100
AcDbSymbolTableRecord
100
AcDbLinetypeTableRecord
  2
ACAD_ISO12W100
 70
0
  3
ISO dash double-dot __ . . __ . . __ . . __ . . 
 72
65
 73
6
 40
21.0
 49
12.0
 74
0
 49
-2.9500000000000002
 74
0
 49
0.1
 74
0
 49
-2.9000000000000004
 74
0
 49
0.1
 74
0
 49
-2.9500000000000002
 74
0
  0
LTYPE
  5
41
100
AcDbSymbolTableRecord
100
AcDbLinetypeTableRecord
  2
HIDDEN2
 70
0
  3
Hidden (.5x) _ _ _ _ _ _ _ _ _ _ _ _ _ _ _ _ _ 
 72
65
 73
2
 40
4.7624999999999993
 49
3.1749999999999998
 74
0
 49
-1.5874999999999999
 74
0
  0
LTYPE
  5
42
100
AcDbSymbolTableRecord
100
AcDbLinetypeTableRecord
  2
CENTER2
 70
0
  3
Center (.5x) ___ _ ___ _ ___ _ ___ _ ___ _ ___
 72
65
 73
4
 40
28.575000000000003
 49
19.050000000000001
 74
0
 49
-3.1749999999999998
 74
0
 49
3.1749999999999998
 74
0
 49
-3.1749999999999998
 74
0
  0
LTYPE
  5
43
100
AcDbSymbolTableRecord
100
AcDbLinetypeTableRecord
  2
ACAD_ISO08W100
 70
0
  3
ISO long-dash short-dash ____ __ ____ __ ____ _
 72
65
 73
4
 40
36.0
 49
24.0
 74
0
 49
-3.0
 74
0
 49
6.0
 74
0
 49
-3.0
 74
0
  0
LTYPE
  5
44
100
AcDbSymbolTableRecord
100
AcDbLinetypeTableRecord
  2
DASHEDX2
 70
0
  3
Dashed (2x) ____  ____  ____  ____  ____  ___
 72
65
 73
2
 40
38.099999999999994
 49
25.399999999999999
 74
0
 49
-12.699999999999999
 74
0
  0
LTYPE
  5
45
100
AcDbSymbolTableRecord
100
AcDbLinetypeTableRecord
  2
DOT2
 70
0
  3
Dot (.5x) ........................................
 72
65
 73
2
 40
3.1749999999999998
 49
0.1
 74
0
 49
-3.0749999999999997
 74
0
  0
LTYPE
  5
46
100
AcDbSymbolTableRecord
100
AcDbLinetypeTableRecord
  2
ACAD_ISO14W100
 70
0
  3
ISO dash triple-dot __ . . . __ . . . __ . . . _
 72
65
 73
8
 40
24.000000000000004
 49
12.0
 74
0
 49
-2.9500000000000002
 74
0
 49
0.1
 74
0
 49
-2.9000000000000004
 74
0
 49
0.1
 74
0
 49
-2.9000000000000004
 74
0
 49
0.1
 74
0
 49
-2.9500000000000002
 74
0
  0
LTYPE
  5
47
100
AcDbSymbolTableRecord
100
AcDbLinetypeTableRecord
  2
ACAD_ISO07W100
 70
0
  3
ISO dot . . . . . . . . . . . . . . . . . . . . 
 72
65
 73
2
 40
3.0
 49
0.1
 74
0
 49
-2.8999999999999999
 74
0
  0
LTYPE
  5
48
100
AcDbSymbolTableRecord
100
AcDbLinetypeTableRecord
  2
ACAD_ISO09W100
 70
0
  3
ISO long-dash double-short-dash ____ __ __ ____
 72
65
 73
6
 40
45.0
 49
24.0
 74
0
 49
-3.0
 74
0
 49
6.0
 74
0
 49
-3.0
 74
0
 49
6.0
 74
0
 49
-3.0
 74
0
  0
LTYPE
  5
49
100
AcDbSymbolTableRecord
100
AcDbLinetypeTableRecord
  2
ACAD_ISO02W100
 70
0
  3
ISO dash __ __ __ __ __ __ __ __ __ __ __ __ __
 72
65
 73
2
 40
15.0
 49
12.0
 74
0
 49
-3.0
 74
0
  0
LTYPE
  5
4A
100
AcDbSymbolTableRecord
100
AcDbLinetypeTableRecord
  2
BORDER2
 70
0
  3
Border (.5x) __.__.__.__.__.__.__.__.__.__.__.
 72
65
 73
6
 40
22.225000000000001
 49
6.3499999999999996
 74
0
 49
-3.1749999999999998
 74
0
 49
6.3499999999999996
 74
0
 49
-3.125
 74
0
 49
0.1
 74
0
 49
-3.125
 74
0
  0
LTYPE
  5
4B
100
AcDbSymbolTableRecord
100
AcDbLinetypeTableRecord
  2
BORDERX2
 70
0
  3
Border (2x) ____  ____  .  ____  ____  .  ___
 72
65
 73
6
 40
88.899999999999977
 49
25.399999999999999
 74
0
 49
-12.699999999999999
 74
0
 49
25.399999999999999
 74
0
 49
-12.649999999999999
 74
0
 49
0.1
 74
0
 49
-12.649999999999999
 74
0
  0
LTYPE
  5
4C
100
AcDbSymbolTableRecord
100
AcDbLinetypeTableRecord
  2
DASHED2
 70
0
  3
Dashed (.5x) _ _ _ _ _ _ _ _ _ _ _ _ _ _ _ _ _ 
 72
65
 73
2
 40
9.5249999999999986
 49
6.3499999999999996
 74
0
 49
-3.1749999999999998
 74
0
  0
LTYPE
  5
4D
100
AcDbSymbolTableRecord
100
AcDbLinetypeTableRecord
  2
DIVIDEX2
 70
0
  3
Divide (2x) ________  .  .  ________  .  .  _
 72
65
 73
6
 40
63.5
 49
25.399999999999999
 74
0
 49
-12.649999999999999
 74
0
 49
0.1
 74
0
 49
-12.599999999999998
 74
0
 49
0.1
 74
0
 49
-12.649999999999999
 74
0
  0
LTYPE
  5
4E
100
AcDbSymbolTableRecord
100
AcDbLinetypeTableRecord
  2
DOT
 70
0
  3
Dot . . . . . . . . . . . . . . . . . . . . . . . .
 72
65
 73
2
 40
6.3499999999999996
 49
0.1
 74
0
 49
-6.25
 74
0
  0
LTYPE
  5
4F
100
AcDbSymbolTableRecord
100
AcDbLinetypeTableRecord
  2
ACAD_ISO05W100
 70
0
  3
ISO long-dash double-dot ____ .. ____ .. ____ . 
 72
65
 73
6
 40
33.000000000000007
 49
24.0
 74
0
 49
-2.9500000000000002
 74
0
 49
0.1
 74
0
 49
-2.9000000000000004
 74
0
 49
0.1
 74
0
 49
-2.9500000000000002
 74
0
  0
LTYPE
  5
50
100
AcDbSymbolTableRecord
100
AcDbLinetypeTableRecord
  2
ACAD_ISO10W100
 70
0
  3
ISO dash dot __ . __ . __ . __ . __ . __ . __ . 
 72
65
 73
4
 40
18.0
 49
12.0
 74
0
 49
-2.9500000000000002
 74
0
 49
0.1
 74
0
 49
-2.9500000000000002
 74
0
  0
LTYPE
  5
51
100
AcDbSymbolTableRecord
100
AcDbLinetypeTableRecord
  2
DASHDOT2
 70
0
  3
Dash dot (.5x) _._._._._._._._._._._._._._._.
 72
65
 73
4
 40
12.699999999999999
 49
6.3499999999999996
 74
0
 49
-3.125
 74
0
 49
0.1
 74
0
 49
-3.125
 74
0
  0
LTYPE
  5
52
100
AcDbSymbolTableRecord
100
AcDbLinetypeTableRecord
  2
ACAD_ISO13W100
 70
0
  3
ISO double-dash double-dot __ __ . . __ __ . . _
 72
65
 73
8
 40
36.000000000000007
 49
12.0
 74
0
 49
-3.0
 74
0
 49
12.0
 74
0
 49
-2.9500000000000002
 74
0
 49
0.1
 74
0
 49
-2.9000000000000004
 74
0
 49
0.1
 74
0
 49
-2.9500000000000002
 74
0
  0
LTYPE
  5
53
100
AcDbSymbolTableRecord
100
AcDbLinetypeTableRecord
  2
ACAD_ISO11W100
 70
0
  3
ISO double-dash dot __ __ . __ __ . __ __ . __ _
 72
65
 73
6
 40
33.0
 49
12.0
 74
0
 49
-3.0
 74
0
 49
12.0
 74
0
 49
-2.9500000000000002
 74
0
 49
0.1
 74
0
 49
-2.9500000000000002
 74
0
  0
LTYPE
  5
54
100
AcDbSymbolTableRecord
100
AcDbLinetypeTableRecord
  2
ACAD_ISO15W100
 70
0
  3
ISO double-dash triple-dot __ __ . . . __ __ . .
 72
65
 73
10
 40
39.000000000000007
 49
12.0
 74
0
 49
-3.0
 74
0
 49
12.0
 74
0
 49
-2.9500000000000002
 74
0
 49
0.1
 74
0
 49
-2.9000000000000004
 74
0
 49
0.1
 74
0
 49
-2.9000000000000004
 74
0
 49
0.1
 74
0
 49
-2.9500000000000002
 74
0
  0
LTYPE
  5
55
100
AcDbSymbolTableRecord
100
AcDbLinetypeTableRecord
  2
DIVIDE
 70
0
  3
Divide ____ . . ____ . . ____ . . ____ . . ____
 72
65
 73
6
 40
31.750000000000004
 49
12.699999999999999
 74
0
 49
-6.2999999999999998
 74
0
 49
0.1
 74
0
 49
-6.25
 74
0
 49
0.1
 74
0
 49
-6.2999999999999998
 74
0
  0
LTYPE
  5
56
100
AcDbSymbolTableRecord
100
AcDbLinetypeTableRecord
  2
BORDER
 70
0
  3
Border __ __ . __ __ . __ __ . __ __ . __ __ .
 72
65
 73
6
 40
44.449999999999996
 49
12.699999999999999
 74
0
 49
-6.3499999999999996
 74
0
 49
12.699999999999999
 74
0
 49
-6.2999999999999998
 74
0
 49
0.1
 74
0
 49
-6.2999999999999998
 74
0
  0
ENDTAB
  0
TABLE
  2
LAYER
  5
2
100
AcDbSymbolTable
 70
1
  0
LAYER
  5
10
100
AcDbSymbolTableRecord
100
AcDbLayerTableRecord
  2
0
 70
0
 62
7
420
0
  6
Continuous
370
25
390
F
  0
ENDTAB
  0
TABLE
  2
STYLE
  5
3
100
AcDbSymbolTable
 70
30
  0
STYLE
  5
57
100
AcDbSymbolTableRecord
100
AcDbTextStyleTableRecord
  2
Standard
 70
0
 40
0.0
 41
1.0
 50
0.0
 71
0
 42
2.5
  3

  4

1001
ACAD
1000
txt
1071
0
  0
STYLE
  5
58
100
AcDbSymbolTableRecord
100
AcDbTextStyleTableRecord
  2
textstyle0
 70
0
 40
0.0
 41
1.0
 50
0.0
 71
0
 42
3.0
  3

  4

1001
ACAD
1000
Consolas
1071
0
  0
STYLE
  5
59
100
AcDbSymbolTableRecord
100
AcDbTextStyleTableRecord
  2
textstyle1
 70
0
 40
0.0
 41
1.0
 50
0.0
 71
0
 42
1.5
  3

  4

1001
ACAD
1000
Consolas
1071
0
  0
STYLE
  5
5A
100
AcDbSymbolTableRecord
100
AcDbTextStyleTableRecord
  2
textstyle2
 70
0
 40
0.0
 41
1.0
 50
0.0
 71
0
 42
1.5
  3

  4

1001
ACAD
1000
Consolas
1071
0
  0
STYLE
  5
5B
100
AcDbSymbolTableRecord
100
AcDbTextStyleTableRecord
  2
textstyle3
 70
0
 40
0.0
 41
1.0
 50
0.0
 71
0
 42
1.5
  3

  4

1001
ACAD
1000
Consolas
1071
0
  0
STYLE
  5
5C
100
AcDbSymbolTableRecord
100
AcDbTextStyleTableRecord
  2
textstyle4
 70
0
 40
0.0
 41
1.0
 50
0.0
 71
0
 42
3.0
  3

  4

1001
ACAD
1000
Consolas
1071
0
  0
STYLE
  5
5D
100
AcDbSymbolTableRecord
100
AcDbTextStyleTableRecord
  2
textstyle5
 70
0
 40
0.0
 41
1.0
 50
0.0
 71
0
 42
3.0
  3

  4

1001
ACAD
1000
Consolas
1071
0
  0
STYLE
  5
5E
100
AcDbSymbolTableRecord
100
AcDbTextStyleTableRecord
  2
textstyle6
 70
0
 40
0.0
 41
1.0
 50
0.0
 71
0
 42
1.5
  3

  4

1001
ACAD
1000
Consolas
1071
0
  0
STYLE
  5
5F
100
AcDbSymbolTableRecord
100
AcDbTextStyleTableRecord
  2
textstyle7
 70
0
 40
0.0
 41
1.0
 50
0.0
 71
0
 42
1.5
  3

  4

1001
ACAD
1000
Consolas
1071
0
  0
STYLE
  5
60
100
AcDbSymbolTableRecord
100
AcDbTextStyleTableRecord
  2
textstyle8
 70
0
 40
0.0
 41
1.0
 50
0.0
 71
0
 42
1.5
  3

  4

1001
ACAD
1000
Consolas
1071
0
  0
STYLE
  5
61
100
AcDbSymbolTableRecord
100
AcDbTextStyleTableRecord
  2
textstyle9
 70
0
 40
0.0
 41
1.0
 50
0.0
 71
0
 42
1.5
  3

  4

1001
ACAD
1000
Consolas
1071
0
  0
STYLE
  5
62
100
AcDbSymbolTableRecord
100
AcDbTextStyleTableRecord
  2
textstyle10
 70
0
 40
0.0
 41
1.0
 50
0.0
 71
0
 42
1.5
  3

  4

1001
ACAD
1000
Consolas
1071
0
  0
STYLE
  5
63
100
AcDbSymbolTableRecord
100
AcDbTextStyleTableRecord
  2
textstyle11
 70
0
 40
0.0
 41
1.0
 50
0.0
 71
0
 42
1.5
  3

  4

1001
ACAD
1000
Consolas
1071
0
  0
STYLE
  5
64
100
AcDbSymbolTableRecord
100
AcDbTextStyleTableRecord
  2
textstyle12
 70
0
 40
0.0
 41
1.0
 50
0.0
 71
0
 42
1.5
  3

  4

1001
ACAD
1000
Consolas
1071
0
  0
STYLE
  5
65
100
AcDbSymbolTableRecord
100
AcDbTextStyleTableRecord
  2
textstyle13
 70
0
 40
0.0
 41
1.0
 50
0.0
 71
0
 42
1.5
  3

  4

1001
ACAD
1000
Consolas
1071
0
  0
STYLE
  5
66
100
AcDbSymbolTableRecord
100
AcDbTextStyleTableRecord
  2
textstyle14
 70
0
 40
0.0
 41
1.0
 50
0.0
 71
0
 42
1.5
  3

  4

1001
ACAD
1000
Consolas
1071
0
  0
STYLE
  5
67
100
AcDbSymbolTableRecord
100
AcDbTextStyleTableRecord
  2
textstyle15
 70
0
 40
0.0
 41
1.0
 50
0.0
 71
0
 42
1.5
  3

  4

1001
ACAD
1000
Consolas
1071
0
  0
STYLE
  5
68
100
AcDbSymbolTableRecord
100
AcDbTextStyleTableRecord
  2
textstyle16
 70
0
 40
0.0
 41
1.0
 50
0.0
 71
0
 42
1.5
  3

  4

1001
ACAD
1000
Consolas
1071
0
  0
STYLE
  5
69
100
AcDbSymbolTableRecord
100
AcDbTextStyleTableRecord
  2
textstyle17
 70
0
 40
0.0
 41
1.0
 50
0.0
 71
0
 42
1.5
  3

  4

1001
ACAD
1000
Consolas
1071
0
  0
STYLE
  5
6A
100
AcDbSymbolTableRecord
100
AcDbTextStyleTableRecord
  2
textstyle18
 70
0
 40
0.0
 41
1.0
 50
0.0
 71
0
 42
1.5
  3

  4

1001
ACAD
1000
Consolas
1071
0
  0
STYLE
  5
6B
100
AcDbSymbolTableRecord
100
AcDbTextStyleTableRecord
  2
textstyle19
 70
0
 40
0.0
 41
1.0
 50
0.0
 71
0
 42
3.0
  3

  4

1001
ACAD
1000
Consolas
1071
0
  0
STYLE
  5
6C
100
AcDbSymbolTableRecord
100
AcDbTextStyleTableRecord
  2
textstyle20
 70
0
 40
0.0
 41
1.0
 50
0.0
 71
0
 42
3.0
  3

  4

1001
ACAD
1000
Consolas
1071
0
  0
STYLE
  5
6D
100
AcDbSymbolTableRecord
100
AcDbTextStyleTableRecord
  2
textstyle21
 70
0
 40
0.0
 41
1.0
 50
0.0
 71
0
 42
3.0
  3

  4

1001
ACAD
1000
Consolas
1071
0
  0
STYLE
  5
6E
100
AcDbSymbolTableRecord
100
AcDbTextStyleTableRecord
  2
textstyle22
 70
0
 40
0.0
 41
1.0
 50
0.0
 71
0
 42
3.0
  3

  4

1001
ACAD
1000
Consolas
1071
0
  0
STYLE
  5
6F
100
AcDbSymbolTableRecord
100
AcDbTextStyleTableRecord
  2
textstyle23
 70
0
 40
0.0
 41
1.0
 50
0.0
 71
0
 42
3.0
  3

  4

1001
ACAD
1000
Consolas
1071
0
  0
STYLE
  5
70
100
AcDbSymbolTableRecord
100
AcDbTextStyleTableRecord
  2
textstyle24
 70
0
 40
0.0
 41
1.0
 50
0.0
 71
0
 42
3.0
  3

  4

1001
ACAD
1000
Consolas
1071
0
  0
STYLE
  5
71
100
AcDbSymbolTableRecord
100
AcDbTextStyleTableRecord
  2
textstyle25
 70
0
 40
0.0
 41
1.0
 50
0.0
 71
0
 42
3.0
  3

  4

1001
ACAD
1000
Consolas
1071
0
  0
STYLE
  5
72
100
AcDbSymbolTableRecord
100
AcDbTextStyleTableRecord
  2
textstyle26
 70
0
 40
0.0
 41
1.0
 50
0.0
 71
0
 42
3.0
  3

  4

1001
ACAD
1000
Consolas
1071
0
  0
STYLE
  5
73
100
AcDbSymbolTableRecord
100
AcDbTextStyleTableRecord
  2
textstyle27
 70
0
 40
0.0
 41
1.0
 50
0.0
 71
0
 42
3.0
  3

  4

1001
ACAD
1000
Consolas
1071
0
  0
STYLE
  5
74
100
AcDbSymbolTableRecord
100
AcDbTextStyleTableRecord
  2
textstyle28
 70
0
 40
0.0
 41
1.0
 50
0.0
 71
0
 42
3.0
  3

  4

1001
ACAD
1000
Consolas
1071
0
  0
ENDTAB
  0
TABLE
  2
VIEW
  5
6
100
AcDbSymbolTable
 70
0
  0
ENDTAB
  0
TABLE
  2
UCS
  5
7
100
AcDbSymbolTable
 70
0
  0
ENDTAB
  0
TABLE
  2
APPID
  5
9
100
AcDbSymbolTable
 70
1
  0
APPID
  5
12
100
AcDbSymbolTableRecord
100
AcDbRegAppTableRecord
  2
ACAD
 70
0
  0
APPID
  5
75
100
AcDbSymbolTableRecord
100
AcDbRegAppTableRecord
  2
QCAD
 70
0
  0
ENDTAB
  0
TABLE
  2
DIMSTYLE
  5
A
100
AcDbSymbolTable
 70
1
100
AcDbDimStyleTable
 71
0
  0
DIMSTYLE
105
27
100
AcDbSymbolTableRecord
100
AcDbDimStyleTableRecord
  2
Standard
 41
2.5
 42
0.625
 43
3.75
 44
1.25
 70
0
 73
0
 74
0
 77
1
 78
8
140
2.5
141
2.5
143
0.03937007874016
147
0.625
171
3
172
1
271
2
272
2
274
3
278
44
283
0
284
8
340
57
  0
ENDTAB
  0
TABLE
  2
BLOCK_RECORD
  5
1
100
AcDbSymbolTable
 70
1
  0
BLOCK_RECORD
  5
1F
100
AcDbSymbolTableRecord
100
AcDbBlockTableRecord
  2
*Model_Space
340
22
  0
BLOCK_RECORD
  5
1B
100
AcDbSymbolTableRecord
100
AcDbBlockTableRecord
  2
*Paper_Space
340
1E
  0
BLOCK_RECORD
  5
23
100
AcDbSymbolTableRecord
100
AcDbBlockTableRecord
  2
*Paper_Space0
340
26
  0
ENDTAB
  0
ENDSEC
  0
SECTION
  2
BLOCKS
  0
BLOCK
  5
20
100
AcDbEntity
  8
0
100
AcDbBlockBegin
  2
*Model_Space
 70
0
 10
0.0
 20
0.0
 30
0.0
  3
*Model_Space
  1

  0
ENDBLK
  5
21
100
AcDbEntity
  8
0
100
AcDbBlockEnd
  0
BLOCK
  5
1C
100
AcDbEntity
 67
1
  8
0
100
AcDbBlockBegin
  2
*Paper_Space
 70
0
 10
0.0
 20
0.0
 30
0.0
  3
*Paper_Space
  1

  0
ENDBLK
  5
1D
100
AcDbEntity
 67
1
  8
0
100
AcDbBlockEnd
  0
BLOCK
  5
24
100
AcDbEntity
  8
0
100
AcDbBlockBegin
  2
*Paper_Space0
 70
0
 10
0.0
 20
0.0
 30
0.0
  3
*Paper_Space0
  1

  0
ENDBLK
  5
25
100
AcDbEntity
  8
0
100
AcDbBlockEnd
  0
ENDSEC
  0
SECTION
  2
ENTITIES
  0
LINE
  5
76
100
AcDbEntity
  8
0
 62
1
420
16711680
370
-1
 48
1.0
  6
CENTER2
100
AcDbLine
 10
120.0
 20
80.0
 30
0.0
 11
120.0
 21
40.0
 31
0.0
  0
LINE
  5
77
100
AcDbEntity
  8
0
 62
1
420
16711680
370
-1
 48
1.0
  6
CENTER2
100
AcDbLine
 10
120.0
 20
20.0
 30
0.0
 11
120.0
 21
-20.0
 31
0.0
  0
LINE
  5
78
100
AcDbEntity
  8
0
 62
1
420
16711680
370
-1
 48
1.0
  6
CENTER2
100
AcDbLine
 10
180.0
 20
80.0
 30
0.0
 11
180.0
 21
40.0
 31
0.0
  0
LINE
  5
79
100
AcDbEntity
  8
0
 62
9
420
12632256
370
-1
 48
1.0
  6
BYLAYER
100
AcDbLine
 10
100.0
 20
60.0
 30
0.0
 11
140.0
 21
60.0
 31
0.0
  0
LINE
  5
7A
100
AcDbEntity
  8
0
 62
9
420
12632256
370
-1
 48
1.0
  6
BYLAYER
100
AcDbLine
 10
100.0
 20
0.0
 30
0.0
 11
140.0
 21
0.0
 31
0.0
  0
LINE
  5
7B
100
AcDbEntity
  8
0
 62
9
420
12632256
370
-1
 48
1.0
  6
BYLAYER
100
AcDbLine
 10
160.0
 20
60.0
 30
0.0
 11
200.0
 21
60.0
 31
0.0
  0
LINE
  5
7C
100
AcDbEntity
  8
0
 62
9
420
12632256
370
-1
 48
1.0
  6
HIDDEN
100
AcDbLine
 10
142.9939
 20
61.727358000000002
 30
0.0
 11
130.0
 21
69.999999999999986
 31
0.0
  0
LINE
  5
7D
100
AcDbEntity
  8
0
 62
9
420
12632256
370
-1
 48
1.0
  6
HIDDEN
100
AcDbLine
 10
97.006100000000004
 20
61.727357999999995
 30
0.0
 11
110.0
 21
70.000000000000014
 31
0.0
  0
LINE
  5
7E
100
AcDbEntity
  8
0
 62
9
420
12632256
370
-1
 48
1.0
  6
HIDDEN
100
AcDbLine
 10
142.9939
 20
61.727358000000002
 30
0.0
 11
145.0
 21
77.0
 31
0.0
  0
LINE
  5
7F
100
AcDbEntity
  8
0
 62
9
420
12632256
370
-1
 48
1.0
  6
HIDDEN
100
AcDbLine
 10
122.16400899999999
 20
12.081517
 30
0.0
 11
129.86818214200574
 21
14.09322465627363
 31
0.0
  0
LINE
  5
80
100
AcDbEntity
  8
0
 62
9
420
12632256
370
-1
 48
1.0
  6
HIDDEN
100
AcDbLine
 10
122.16400899999999
 20
12.081517
 30
0.0
 11
116.28948980995662
 21
17.45657796160474
 31
0.0
  0
ARC
  5
81
100
AcDbEntity
  8
0
 62
256
370
-1
 48
1.0
  6
BYLAYER
100
AcDbCircle
 10
142.99389951991105
 20
61.727358171619017
 30
0.0
 40
15.403831586791096
100
AcDbArc
 50
82.516893478099334
 51
147.51689347810037
  0
CIRCLE
  5
82
100
AcDbEntity
  8
0
 62
1
420
16711680
370
-1
 48
1.0
  6
BYLAYER
100
AcDbCircle
 10
142.9939
 20
61.727358000000002
 30
0.0
 40
0.35
  0
MTEXT
  5
83
100
AcDbEntity
  8
0
 62
256
370
-1
 48
1.0
  6
BYLAYER
100
AcDbMText
 10
145.0
 20
63.0
 30
0.0
 40
1.5
 41
0.0
 71
1
 72
1
  1
\H1;\U+03b1
  7
textstyle1
 50
0.0
 73
2
 44
1.0
  0
MTEXT
  5
84
100
AcDbEntity
  8
0
 62
256
370
-1
 48
1.0
  6
BYLAYER
100
AcDbMText
 10
93.599999999999994
 20
63.999999999999993
 30
0.0
 40
1.5
 41
0.0
 71
1
 72
1
  1
\H1;\U+03b1\S^m;
  7
textstyle3
 50
0.0
 73
2
 44
1.0
  0
MTEXT
  5
85
100
AcDbEntity
  8
0
 62
256
370
-1
 48
1.0
  6
BYLAYER
100
AcDbMText
 10
125.0
 20
12.0
 30
0.0
 40
1.5
 41
0.0
 71
1
 72
1
  1
\H1;\U+03b1
  7
textstyle2
 50
0.0
 73
2
 44
1.0
  0
MTEXT
  5
86
100
AcDbEntity
  8
0
 62
256
370
-1
 48
1.0
  6
BYLAYER
100
AcDbMText
 10
115.0
 20
12.0
 30
0.0
 40
1.5
 41
0.0
 71
1
 72
1
  1
\H1;\U+03b1\S^m;
  7
textstyle6
 50
0.0
 73
2
 44
1.0
  0
ARC
  5
87
100
AcDbEntity
  8
0
 62
1
420
16711680
370
-1
 48
1.0
  6
BYLAYER
100
AcDbCircle
 10
97.006100000000004
 20
61.727357999999995
 30
0.0
 40
4.8259714048054114
100
AcDbArc
 50
0.0
 51
32.302073854746268
  0
MTEXT
  5
88
100
AcDbEntity
  8
0
 62
256
370
-1
 48
1.0
  6
BYLAYER
100
AcDbMText
 10
137.0
 20
64.0
 30
0.0
 40
1.5
 41
0.0
 71
1
 72
1
  1
\H1;\U+03b2
  7
textstyle8
 50
0.0
 73
2
 44
1.0
  0
MTEXT
  5
89
100
AcDbEntity
  8
0
 62
256
370
-1
 48
1.0
  6
BYLAYER
100
AcDbMText
 10
103.0
 20
64.0
 30
0.0
 40
1.5
 41
0.0
 71
1
 72
1
  1
\H1;\U+03b2\S^m;
  7
textstyle7
 50
0.0
 73
2
 44
1.0
  0
MTEXT
  5
8A
100
AcDbEntity
  8
0
 62
256
370
-1
 48
1.0
  6
BYLAYER
100
AcDbMText
 10
121.0
 20
12.0
 30
0.0
 40
1.5
 41
0.0
 71
1
 72
1
  1
\H1;\U+03b2
  7
textstyle10
 50
0.0
 73
2
 44
1.0
  0
MTEXT
  5
8B
100
AcDbEntity
  8
0
 62
256
370
-1
 48
1.0
  6
BYLAYER
100
AcDbMText
 10
118.63077950034899
 20
12.0
 30
0.0
 40
1.5
 41
0.0
 71
1
 72
1
  1
\H1;\U+03b2\S^m;
  7
textstyle9
 50
0.0
 73
2
 44
1.0
  0
CIRCLE
  5
8C
100
AcDbEntity
  8
0
 62
1
420
16711680
370
-1
 48
1.0
  6
BYLAYER
100
AcDbCircle
 10
97.006100000000004
 20
61.727357999999995
 30
0.0
 40
0.3499999999999943
  0
CIRCLE
  5
8D
100
AcDbEntity
  8
0
 62
1
420
16711680
370
-1
 48
1.0
  6
BYLAYER
100
AcDbCircle
 10
40.0
 20
70.0
 30
0.0
 40
0.3499999999999943
  0
CIRCLE
  5
8E
100
AcDbEntity
  8
0
 62
1
420
16711680
370
-1
 48
1.0
  6
BYLAYER
100
AcDbCircle
 10
56.0
 20
60.0
 30
0.0
 40
0.3499999999999943
  0
CIRCLE
  5
8F
100
AcDbEntity
  8
0
 62
1
420
16711680
370
-1
 48
1.0
  6
BYLAYER
100
AcDbCircle
 10
30.038429267993841
 20
76.217177471034873
 30
0.0
 40
0.3499999999999943
  0
LINE
  5
90
100
AcDbEntity
  8
0
 62
256
370
70
 48
1.0
  6
BYLAYER
100
AcDbLine
 10
88.0
 20
80.0
 30
0.0
 11
88.0
 21
0.0
 31
0.0
  0
LINE
  5
91
100
AcDbEntity
  8
0
 62
256
370
70
 48
1.0
  6
BYLAYER
100
AcDbLine
 10
-23.760132199693956
 20
80.0
 30
0.0
 11
-23.760132199693956
 21
0.0
 31
0.0
  0
LINE
  5
92
100
AcDbEntity
  8
0
 62
256
370
70
 48
1.0
  6
BYLAYER
100
AcDbLine
 10
-24.50993942234124
 20
230.0
 30
0.0
 11
-24.50993942234124
 21
150.0
 31
0.0
  0
MTEXT
  5
93
100
AcDbEntity
  8
0
 62
256
370
-1
 48
1.0
  6
BYLAYER
100
AcDbMText
 10
90.0
 20
14.000000000000021
 30
0.0
 40
3.0
 41
0.0
 71
1
 72
1
  1
\H4.99999;Mirror of arc
  7
textstyle5
 50
90.0
 73
2
 44
1.0
  0
MTEXT
  5
94
100
AcDbEntity
  8
0
 62
256
370
-1
 48
1.0
  6
BYLAYER
100
AcDbMText
 10
-21.76013219969396
 20
14.000000000000064
 30
0.0
 40
3.0
 41
0.0
 71
1
 72
1
  1
\H4.99999;Scale of point
  7
textstyle4
 50
90.0
 73
2
 44
1.0
  0
MTEXT
  5
95
100
AcDbEntity
  8
0
 62
256
370
-1
 48
1.0
  6
BYLAYER
100
AcDbMText
 10
-22.509939422341247
 20
150.0
 30
0.0
 40
3.0
 41
0.0
 71
1
 72
1
  1
\H4.99999;Mirror and boundbox
  7
textstyle25
 50
90.0
 73
2
 44
1.0
  0
LINE
  5
96
100
AcDbEntity
  8
0
 62
9
420
12632256
370
-1
 48
1.0
  6
HIDDEN
100
AcDbLine
 10
97.006100000000004
 20
61.727357999999995
 30
0.0
 11
94.936177133247057
 21
76.905761988254795
 31
0.0
  0
ARC
  5
97
100
AcDbEntity
  8
0
 62
256
370
-1
 48
1.0
  6
BYLAYER
100
AcDbCircle
 10
97.006100000000004
 20
61.727357999999995
 30
0.0
 40
15.403832083938211
100
AcDbArc
 50
32.483106101352867
 51
97.765686715738866
  0
MTEXT
  5
98
100
AcDbEntity
  8
0
 62
256
370
-1
 48
1.0
  6
BYLAYER
100
AcDbMText
 10
90.0
 20
90.0
 30
0.0
 40
1.5
 41
0.0
 71
1
 72
1
  1
\c0;mirrored_Angle = 180 - angle\Pif mirrored_Angle < 0:\P    mirrored_Angle = 360 + mirrored_Angle
  7
textstyle11
 50
0.0
 73
2
 44
1.0
  0
ARC
  5
99
100
AcDbEntity
  8
0
 62
256
370
-1
 48
1.0
  6
HIDDEN
100
AcDbCircle
 10
122.16400883717307
 20
12.081517020350159
 30
0.0
 40
7.962490434740193
100
AcDbArc
 50
14.634265307383325
 51
137.54214465874372
  0
ARC
  5
9A
100
AcDbEntity
  8
0
 62
256
370
-1
 48
1.0
  6
HIDDEN2
100
AcDbCircle
 10
117.83599116282693
 20
12.081517020350159
 30
0.0
 40
7.962490434740193
100
AcDbArc
 50
42.457855341256263
 51
165.36573469261671
  0
CIRCLE
  5
9B
100
AcDbEntity
  8
0
 62
1
420
16711680
370
-1
 48
1.0
  6
BYLAYER
100
AcDbCircle
 10
122.16400899999999
 20
12.081517
 30
0.0
 40
0.35
  0
CIRCLE
  5
9C
100
AcDbEntity
  8
0
 62
1
420
16711680
370
-1
 48
1.0
  6
BYLAYER
100
AcDbCircle
 10
117.83599100000001
 20
12.081517
 30
0.0
 40
0.35
  0
LINE
  5
9D
100
AcDbEntity
  8
0
 62
9
420
12632256
370
-1
 48
1.0
  6
HIDDEN2
100
AcDbLine
 10
117.83599100000001
 20
12.081517
 30
0.0
 11
123.71051012817412
 21
17.456577670532617
 31
0.0
  0
LINE
  5
9E
100
AcDbEntity
  8
0
 62
9
420
12632256
370
-1
 48
1.0
  6
HIDDEN2
100
AcDbLine
 10
117.83599100000001
 20
12.081517
 30
0.0
 11
110.13181785799426
 21
14.093224656273625
 31
0.0
  0
ARC
  5
9F
100
AcDbEntity
  8
0
 62
256
370
-1
 48
1.0
  6
BYLAYER
100
AcDbCircle
 10
170.0
 20
70.0
 30
0.0
 40
20.0
100
AcDbArc
 50
45.000000000000007
 51
335.0
  0
LINE
  5
A0
100
AcDbEntity
  8
0
 62
9
420
12632256
370
-1
 48
1.0
  6
HIDDEN
100
AcDbLine
 10
170.0
 20
70.0
 30
0.0
 11
188.126155740733
 21
61.547634765186018
 31
0.0
  0
LINE
  5
A1
100
AcDbEntity
  8
0
 62
9
420
12632256
370
-1
 48
1.0
  6
HIDDEN
100
AcDbLine
 10
170.0
 20
70.0
 30
0.0
 11
184.14213562373095
 21
84.142135623730951
 31
0.0
  0
CIRCLE
  5
A2
100
AcDbEntity
  8
0
 62
1
420
16711680
370
-1
 48
1.0
  6
BYLAYER
100
AcDbCircle
 10
170.0
 20
70.0
 30
0.0
 40
0.35
  0
CIRCLE
  5
A3
100
AcDbEntity
  8
0
 62
1
420
16711680
370
-1
 48
1.0
  6
BYLAYER
100
AcDbCircle
 10
190.0
 20
70.0
 30
0.0
 40
0.35
  0
LINE
  5
A4
100
AcDbEntity
  8
0
 62
9
420
12632256
370
-1
 48
1.0
  6
HIDDEN2
100
AcDbLine
 10
190.0
 20
70.0
 30
0.0
 11
171.873844259267
 21
61.547634765186018
 31
0.0
  0
LINE
  5
A5
100
AcDbEntity
  8
0
 62
9
420
12632256
370
-1
 48
1.0
  6
HIDDEN2
100
AcDbLine
 10
190.0
 20
70.0
 30
0.0
 11
175.85786437626905
 21
84.142135623730951
 31
0.0
  0
ARC
  5
A6
100
AcDbEntity
  8
0
 62
256
370
-1
 48
1.0
  6
BYLAYER
100
AcDbCircle
 10
190.0
 20
70.0
 30
0.0
 40
20.0
100
AcDbArc
 50
205.0
 51
135.0
  0
LINE
  5
A7
100
AcDbEntity
  8
0
 62
9
420
12632256
370
-1
 48
1.0
  6
BYLAYER
100
AcDbLine
 10
145.0
 20
61.727357999999995
 30
0.0
 11
90.0
 21
61.727357999999995
 31
0.0
  0
LINE
  5
A8
100
AcDbEntity
  8
0
 62
9
420
12632256
370
-1
 48
1.0
  6
BYLAYER
100
AcDbLine
 10
83.5
 20
60.0
 30
0.0
 11
28.5
 21
60.0
 31
0.0
  0
LINE
  5
A9
100
AcDbEntity
  8
0
 62
9
420
12632256
370
-1
 48
1.0
  6
BYLAYER
100
AcDbLine
 10
56.0
 20
87.5
 30
0.0
 11
55.999999999999993
 21
32.5
 31
0.0
  0
LINE
  5
AA
100
AcDbEntity
  8
0
 62
9
420
12632256
370
-1
 48
1.0
  6
BYLAYER
100
AcDbLine
 10
147.5
 20
12.0
 30
0.0
 11
92.5
 21
12.0
 31
0.0
  0
ARC
  5
AB
100
AcDbEntity
  8
0
 62
1
420
16711680
370
-1
 48
1.0
  6
BYLAYER
100
AcDbCircle
 10
98.863186813186999
 20
58.725824175823973
 30
0.0
 40
5.7005532900823912
100
AcDbArc
 50
112.30083381713706
 51
148.55132366306168
  0
MTEXT
  5
AC
100
AcDbEntity
  8
0
 62
256
370
-1
 48
1.0
  6
BYLAYER
100
AcDbMText
 10
107.84537181224266
 20
55.651044876225228
 30
0.0
 40
1.5
 41
0.0
 71
1
 72
1
  1
\c0;SWAP ANGLES REQUIRED!
  7
textstyle16
 50
0.0
 73
2
 44
1.0
  0
MTEXT
  5
AD
100
AcDbEntity
  8
0
 62
256
370
-1
 48
1.0
  6
BYLAYER
100
AcDbMText
 10
106.76579695221221
 20
-4.9825937260902782
 30
0.0
 40
1.5
 41
0.0
 71
1
 72
1
  1
\c0;SWAP ANGLES REQUIRED!
  7
textstyle15
 50
0.0
 73
2
 44
1.0
  0
MTEXT
  5
AE
100
AcDbEntity
  8
0
 62
256
370
-1
 48
1.0
  6
BYLAYER
100
AcDbMText
 10
40.0
 20
69.0
 30
0.0
 40
1.5
 41
0.0
 71
1
 72
1
  1
P1
  7
textstyle18
 50
0.0
 73
2
 44
1.0
  0
MTEXT
  5
AF
100
AcDbEntity
  8
0
 62
256
370
-1
 48
1.0
  6
BYLAYER
100
AcDbMText
 10
29.911521087886619
 20
75.303924773881135
 30
0.0
 40
1.5
 41
0.0
 71
1
 72
1
  1
P2
  7
textstyle17
 50
0.0
 73
2
 44
1.0
  0
MTEXT
  5
B0
100
AcDbEntity
  8
0
 62
256
370
-1
 48
1.0
  6
BYLAYER
100
AcDbMText
 10
57.0
 20
59.0
 30
0.0
 40
1.5
 41
0.0
 71
1
 72
1
  1
O
  7
textstyle12
 50
0.0
 73
2
 44
1.0
  0
LINE
  5
B1
100
AcDbEntity
  8
0
 62
1
420
16711680
370
-1
 48
1.0
  6
CENTER2
100
AcDbLine
 10
56.0
 20
60.0
 30
0.0
 11
16.522646333241891
 21
84.659958255582552
 31
0.0
  0
CIRCLE
  5
B2
100
AcDbEntity
  8
0
 62
1
420
16711680
370
-1
 48
1.0
  6
CENTER2
100
AcDbCircle
 10
56.000000000000021
 20
60.0
 30
0.0
 40
18.867962264113224
  0
MTEXT
  5
B3
100
AcDbEntity
  8
0
 62
256
370
-1
 48
1.0
  6
BYLAYER
100
AcDbMText
 10
49.0
 20
66.0
 30
0.0
 40
1.5
 41
0.0
 71
1
 72
1
  1
R1
  7
textstyle13
 50
0.0
 73
2
 44
1.0
  0
MTEXT
  5
B4
100
AcDbEntity
  8
0
 62
256
370
-1
 48
1.0
  6
BYLAYER
100
AcDbMText
 10
39.880399641030657
 20
73.753442999234878
 30
0.0
 40
1.5
 41
0.0
 71
1
 72
1
  1
R2
  7
textstyle14
 50
0.0
 73
2
 44
1.0
  0
CIRCLE
  5
B5
100
AcDbEntity
  8
0
 62
1
420
16711680
370
-1
 48
1.0
  6
CENTER2
100
AcDbCircle
 10
56.000000000000021
 20
60.0
 30
0.0
 40
30.610455730027951
  0
LINE
  5
B6
100
AcDbEntity
  8
0
 62
1
420
16711680
370
-1
 48
1.0
  6
BORDER2
100
AcDbLine
 10
30.038429267993841
 20
76.217177471034873
 30
0.0
 11
30.038429267993841
 21
60.0
 31
0.0
  0
LINE
  5
B7
100
AcDbEntity
  8
0
 62
1
420
16711680
370
-1
 48
1.0
  6
BORDER2
100
AcDbLine
 10
39.997561447343045
 20
69.996097256851712
 30
0.0
 11
39.997561447343053
 21
60.0
 31
0.0
  0
MTEXT
  5
B8
100
AcDbEntity
  8
0
 62
256
370
-1
 48
1.0
  6
BYLAYER
100
AcDbMText
 10
-10.000000000000005
 20
80.0
 30
0.0
 40
3.0
 41
0.0
 71
1
 72
1
  1
\H1.5;Scale factor: k = R2/R1
  7
textstyle20
 50
0.0
 73
2
 44
1.0
  0
MTEXT
  5
B9
100
AcDbEntity
  8
0
 62
256
370
-1
 48
1.0
  6
BYLAYER
100
AcDbMText
 10
-10.0
 20
99.999999999999986
 30
0.0
 40
3.0
 41
0.0
 71
1
 72
1
  1
\H1.5;https://www.geeksforgeeks.org/\P2d-transformation-in-computer-graphics-set-1-scaling-of-objects/
  7
textstyle19
 50
0.0
 73
2
 44
1.0
  0
MTEXT
  5
BA
100
AcDbEntity
  8
0
 62
256
370
-1
 48
1.0
  6
BYLAYER
100
AcDbMText
 10
-10.0
 20
75.0
 30
0.0
 40
3.0
 41
0.0
 71
1
 72
1
  1
\H1.5;|X'|=|k 0||X|\P|Y'| |0 k||Y|
  7
textstyle22
 50
0.0
 73
2
 44
1.0
  0
MTEXT
  5
BB
100
AcDbEntity
  8
0
 62
256
370
-1
 48
1.0
  6
BYLAYER
100
AcDbMText
 10
6.0
 20
75.0
 30
0.0
 40
3.0
 41
0.0
 71
1
 72
1
  1
\H1.5;=|kX+0X|=|kX|\P |0Y+kY| |kY|
  7
textstyle21
 50
0.0
 73
2
 44
1.0
  0
MTEXT
  5
BC
100
AcDbEntity
  8
0
 62
256
370
-1
 48
1.0
  6
BYLAYER
100
AcDbMText
 10
-11.0
 20
69.0
 30
0.0
 40
3.0
 41
0.0
 71
1
 72
1
  1
\H2;Transform beforehand,\Ptransform after ?
  7
textstyle24
 50
0.0
 73
2
 44
1.0
  0
MTEXT
  5
BD
100
AcDbEntity
  8
0
 62
256
370
-1
 48
1.0
  6
BYLAYER
100
AcDbMText
 10
-10.0
 20
50.0
 30
0.0
 40
3.0
 41
0.0
 71
1
 72
1
  1
\fCourier New|b0|i0|c0|p0;\H1.5;P2=|k(P1.X-O.X)+O.X|\P   |k(P1.Y-O.Y)+O.Y|
  7
textstyle23
 50
0.0
 73
2
 44
1.0
  0
LINE
  5
BE
100
AcDbEntity
  8
0
 62
256
370
-1
 48
1.0
  6
BYLAYER
100
AcDbLine
 10
0.0
 20
240.0
 30
0.0
 11
0.0
 21
200.0
 31
0.0
  0
LINE
  5
BF
100
AcDbEntity
  8
0
 62
256
370
-1
 48
1.0
  6
BYLAYER
100
AcDbLine
 10
100.0
 20
240.0
 30
0.0
 11
100.0
 21
200.0
 31
0.0
  0
LINE
  5
C0
100
AcDbEntity
  8
0
 62
256
370
-1
 48
1.0
  6
BYLAYER
100
AcDbLine
 10
-8.284271247461902
 20
170.0
 30
0.0
 11
19.999999999999996
 21
141.7157287525381
 31
0.0
  0
LINE
  5
C1
100
AcDbEntity
  8
0
 62
256
370
-1
 48
1.0
  6
BYLAYER
100
AcDbLine
 10
80.0
 20
198.2842712474619
 30
0.0
 11
108.2842712474619
 21
170.0
 31
0.0
  0
LINE
  5
C2
100
AcDbEntity
  8
0
 62
256
370
-1
 48
1.0
  6
BYLAYER
100
AcDbLine
 10
0.0
 20
200.0
 30
0.0
 11
40.0
 21
200.0
 31
0.0
  0
LINE
  5
C3
100
AcDbEntity
  8
0
 62
256
370
-1
 48
1.0
  6
BYLAYER
100
AcDbLine
 10
100.0
 20
200.0
 30
0.0
 11
60.0
 21
200.0
 31
0.0
  0
LINE
  5
C4
100
AcDbEntity
  8
0
 62
256
370
-1
 48
1.0
  6
BYLAYER
100
AcDbLine
 10
19.999999999999996
 20
141.7157287525381
 30
0.0
 11
48.284271247461902
 21
170.0
 31
0.0
  0
LINE
  5
C5
100
AcDbEntity
  8
0
 62
256
370
-1
 48
1.0
  6
BYLAYER
100
AcDbLine
 10
108.2842712474619
 20
170.0
 30
0.0
 11
80.0
 21
141.7157287525381
 31
0.0
  0
LINE
  5
C6
100
AcDbEntity
  8
0
 62
256
370
-1
 48
1.0
  6
BYLAYER
100
AcDbLine
 10
40.0
 20
200.0
 30
0.0
 11
40.0
 21
210.0
 31
0.0
  0
LINE
  5
C7
100
AcDbEntity
  8
0
 62
256
370
-1
 48
1.0
  6
BYLAYER
100
AcDbLine
 10
60.0
 20
200.0
 30
0.0
 11
60.0
 21
210.0
 31
0.0
  0
LINE
  5
C8
100
AcDbEntity
  8
0
 62
256
370
-1
 48
1.0
  6
BYLAYER
100
AcDbLine
 10
48.284271247461902
 20
170.0
 30
0.0
 11
41.213203435596427
 21
177.07106781186548
 31
0.0
  0
LINE
  5
C9
100
AcDbEntity
  8
0
 62
256
370
-1
 48
1.0
  6
BYLAYER
100
AcDbLine
 10
80.0
 20
141.7157287525381
 30
0.0
 11
72.928932188134524
 21
148.78679656440357
 31
0.0
  0
LINE
  5
CA
100
AcDbEntity
  8
0
 62
256
370
-1
 48
1.0
  6
BYLAYER
100
AcDbLine
 10
40.0
 20
210.0
 30
0.0
 11
30.0
 21
220.0
 31
0.0
  0
LINE
  5
CB
100
AcDbEntity
  8
0
 62
256
370
-1
 48
1.0
  6
BYLAYER
100
AcDbLine
 10
60.0
 20
210.0
 30
0.0
 11
70.0
 21
220.0
 31
0.0
  0
LINE
  5
CC
100
AcDbEntity
  8
0
 62
256
370
-1
 48
1.0
  6
BYLAYER
100
AcDbLine
 10
41.213203435596427
 20
177.07106781186548
 30
0.0
 11
27.071067811865476
 21
177.07106781186548
 31
0.0
  0
LINE
  5
CD
100
AcDbEntity
  8
0
 62
256
370
-1
 48
1.0
  6
BYLAYER
100
AcDbLine
 10
72.928932188134524
 20
148.78679656440357
 30
0.0
 11
72.928932188134524
 21
162.92893218813452
 31
0.0
  0
LINE
  5
CE
100
AcDbEntity
  8
0
 62
256
370
-1
 48
1.0
  6
BYLAYER
100
AcDbLine
 10
30.0
 20
220.0
 30
0.0
 11
20.0
 21
220.0
 31
0.0
  0
LINE
  5
CF
100
AcDbEntity
  8
0
 62
256
370
-1
 48
1.0
  6
BYLAYER
100
AcDbLine
 10
70.0
 20
220.0
 30
0.0
 11
80.0
 21
220.0
 31
0.0
  0
LINE
  5
D0
100
AcDbEntity
  8
0
 62
256
370
-1
 48
1.0
  6
BYLAYER
100
AcDbLine
 10
27.071067811865476
 20
177.07106781186548
 30
0.0
 11
20.0
 21
170.0
 31
0.0
  0
LINE
  5
D1
100
AcDbEntity
  8
0
 62
256
370
-1
 48
1.0
  6
BYLAYER
100
AcDbLine
 10
72.928932188134524
 20
162.92893218813452
 30
0.0
 11
80.0
 21
170.0
 31
0.0
  0
LINE
  5
D2
100
AcDbEntity
  8
0
 62
256
370
-1
 48
1.0
  6
BYLAYER
100
AcDbLine
 10
20.0
 20
220.0
 30
0.0
 11
20.0
 21
230.0
 31
0.0
  0
LINE
  5
D3
100
AcDbEntity
  8
0
 62
256
370
-1
 48
1.0
  6
BYLAYER
100
AcDbLine
 10
80.0
 20
220.0
 30
0.0
 11
80.0
 21
230.0
 31
0.0
  0
LINE
  5
D4
100
AcDbEntity
  8
0
 62
256
370
-1
 48
1.0
  6
BYLAYER
100
AcDbLine
 10
20.0
 20
170.0
 30
0.0
 11
12.928932188134524
 21
177.07106781186548
 31
0.0
  0
LINE
  5
D5
100
AcDbEntity
  8
0
 62
256
370
-1
 48
1.0
  6
BYLAYER
100
AcDbLine
 10
80.0
 20
170.0
 30
0.0
 11
72.928932188134524
 21
177.07106781186548
 31
0.0
  0
LINE
  5
D6
100
AcDbEntity
  8
0
 62
256
370
-1
 48
1.0
  6
BYLAYER
100
AcDbLine
 10
20.0
 20
230.0
 30
0.0
 11
0.0
 21
240.0
 31
0.0
  0
LINE
  5
D7
100
AcDbEntity
  8
0
 62
256
370
-1
 48
1.0
  6
BYLAYER
100
AcDbLine
 10
80.0
 20
230.0
 30
0.0
 11
100.0
 21
240.0
 31
0.0
  0
LINE
  5
D8
100
AcDbEntity
  8
0
 62
256
370
-1
 48
1.0
  6
BYLAYER
100
AcDbLine
 10
12.928932188134524
 20
177.07106781186548
 30
0.0
 11
-8.284271247461902
 21
170.0
 31
0.0
  0
LINE
  5
D9
100
AcDbEntity
  8
0
 62
256
370
-1
 48
1.0
  6
BYLAYER
100
AcDbLine
 10
72.928932188134524
 20
177.07106781186548
 30
0.0
 11
80.0
 21
198.2842712474619
 31
0.0
  0
LINE
  5
DA
100
AcDbEntity
  8
0
 62
3
420
65280
370
-1
 48
1.0
  6
ACAD_ISO02W100
100
AcDbLine
 10
-0.0
 20
240.0
 30
0.0
 11
40.0
 21
240.0
 31
0.0
  0
LINE
  5
DB
100
AcDbEntity
  8
0
 62
3
420
65280
370
-1
 48
1.0
  6
ACAD_ISO02W100
100
AcDbLine
 10
60.0
 20
240.0
 30
0.0
 11
100.0
 21
240.0
 31
0.0
  0
LINE
  5
DC
100
AcDbEntity
  8
0
 62
3
420
65280
370
-1
 48
1.0
  6
ACAD_ISO02W100
100
AcDbLine
 10
39.999999999999993
 20
200.0
 30
0.0
 11
40.0
 21
240.0
 31
0.0
  0
LINE
  5
DD
100
AcDbEntity
  8
0
 62
3
420
65280
370
-1
 48
1.0
  6
ACAD_ISO02W100
100
AcDbLine
 10
60.0
 20
200.0
 30
0.0
 11
60.0
 21
240.0
 31
0.0
  0
LINE
  5
DE
100
AcDbEntity
  8
0
 62
3
420
65280
370
-1
 48
1.0
  6
ACAD_ISO02W100
100
AcDbLine
 10
48.284271247461902
 20
177.07106781186548
 30
0.0
 11
-8.2842712474618931
 21
177.07106781186548
 31
0.0
  0
MTEXT
  5
DF
100
AcDbEntity
  8
0
 62
256
370
-1
 48
1.0
  6
BYLAYER
100
AcDbMText
 10
11.0
 20
244.0
 30
0.0
 40
3.0
 41
0.0
 71
1
 72
1
  1
\H2;original
  7
textstyle26
 50
0.0
 73
2
 44
1.0
  0
MTEXT
  5
E0
100
AcDbEntity
  8
0
 62
256
370
-1
 48
1.0
  6
BYLAYER
100
AcDbMText
 10
73.302500704707455
 20
246.41162968630454
 30
0.0
 40
3.0
 41
0.0
 71
1
 72
1
  1
\H2;mirrored
  7
textstyle28
 50
0.0
 73
2
 44
1.0
  0
MTEXT
  5
E1
100
AcDbEntity
  8
0
 62
256
370
-1
 48
1.0
  6
BYLAYER
100
AcDbMText
 10
43.302500704707455
 20
191.41162968630454
 30
0.0
 40
3.0
 41
0.0
 71
1
 72
1
  1
\H2;turn 45 deg
  7
textstyle27
 50
0.0
 73
2
 44
1.0
  0
LINE
  5
E2
100
AcDbEntity
  8
0
 62
3
420
65280
370
-1
 48
1.0
  6
ACAD_ISO02W100
100
AcDbLine
 10
48.284271247461902
 20
177.07106781186548
 30
0.0
 11
48.284271247461902
 21
141.7157287525381
 31
0.0
  0
LINE
  5
E3
100
AcDbEntity
  8
0
 62
3
420
65280
370
-1
 48
1.0
  6
ACAD_ISO02W100
100
AcDbLine
 10
48.284271247461902
 20
141.7157287525381
 30
0.0
 11
-8.2842712474618949
 21
141.71572875253807
 31
0.0
  0
LINE
  5
E4
100
AcDbEntity
  8
0
 62
3
420
65280
370
-1
 48
1.0
  6
ACAD_ISO02W100
100
AcDbLine
 10
-8.2842712474618931
 20
141.7157287525381
 30
0.0
 11
-8.2842712474618931
 21
177.07106781186548
 31
0.0
  0
LINE
  5
E5
100
AcDbEntity
  8
0
 62
3
420
65280
370
-1
 48
1.0
  6
ACAD_ISO02W100
100
AcDbLine
 10
72.928932188134524
 20
198.2842712474619
 30
0.0
 11
108.2842712474619
 21
198.2842712474619
 31
0.0
  0
LINE
  5
E6
100
AcDbEntity
  8
0
 62
3
420
65280
370
-1
 48
1.0
  6
ACAD_ISO02W100
100
AcDbLine
 10
72.928932188134524
 20
198.2842712474619
 30
0.0
 11
72.928932188134524
 21
141.7157287525381
 31
0.0
  0
LINE
  5
E7
100
AcDbEntity
  8
0
 62
3
420
65280
370
-1
 48
1.0
  6
ACAD_ISO02W100
100
AcDbLine
 10
72.928932188134524
 20
141.7157287525381
 30
0.0
 11
108.2842712474619
 21
141.7157287525381
 31
0.0
  0
LINE
  5
E8
100
AcDbEntity
  8
0
 62
3
420
65280
370
-1
 48
1.0
  6
ACAD_ISO02W100
100
AcDbLine
 10
108.2842712474619
 20
141.7157287525381
 30
0.0
 11
108.2842712474619
 21
198.2842712474619
 31
0.0
  0
MTEXT
  5
E9
100
AcDbEntity
  8
0
 62
256
370
-1
 48
1.0
  6
BYLAYER
100
AcDbMText
 10
19.0
 20
137.0
 30
0.0
 40
3.0
 41
0.0
 71
1
 72
1
  1
\H2;this proves that mirroring affects bound box!\P(When rotation is applied)
  7
textstyle0
 50
0.0
 73
2
 44
1.0
  0
ENDSEC
  0
SECTION
  2
OBJECTS
  0
DICTIONARY
  5
C
100
AcDbDictionary
280
0
281
1
  3
ACAD_GROUP
350
D
  3
ACAD_LAYOUT
350
1A
  3
ACAD_MLINESTYLE
350
17
  3
ACAD_PLOTSETTINGS
350
19
  3
ACAD_PLOTSTYLENAME
350
E
  3
AcDbVariableDictionary
350
EA
  3
QCAD_OBJECTS
350
EB
  0
DICTIONARY
  5
D
100
AcDbDictionary
280
0
281
1
  0
ACDBDICTIONARYWDFLT
  5
E
100
AcDbDictionary
281
1
  3
Normal
350
F
100
AcDbDictionaryWithDefault
340
F
  0
ACDBPLACEHOLDER
  5
F
  0
DICTIONARY
  5
17
100
AcDbDictionary
280
0
281
1
  3
Standard
350
18
  0
MLINESTYLE
  5
18
100
AcDbMlineStyle
  2
STANDARD
 70
0
  3

 62
256
 51
90.0
 52
90.0
 71
2
 49
0.5
 62
256
  6
BYLAYER
 49
-0.5
 62
256
  6
BYLAYER
  0
DICTIONARY
  5
19
100
AcDbDictionary
280
0
281
1
  0
DICTIONARY
  5
1A
100
AcDbDictionary
281
1
  3
Layout1
350
1E
  3
Layout2
350
26
  3
Model
350
22
  0
LAYOUT
  5
1E
100
AcDbPlotSettings
  1

  2
none_device
  4

  6

 40
0.0
 41
0.0
 42
0.0
 43
0.0
 44
0.0
 45
0.0
 46
0.0
 47
0.0
 48
0.0
 49
0.0
140
0.0
141
0.0
142
1.0
143
1.0
 70
688
 72
0
 73
0
 74
5
  7

 75
16
147
1.0
148
0.0
149
0.0
100
AcDbLayout
  1
Layout1
 70
1
 71
1
 10
0.0
 20
0.0
 11
420.0
 21
297.0
 12
0.0
 22
0.0
 32
0.0
 14
100000000000000000000.0
 24
100000000000000000000.0
 34
100000000000000000000.0
 15
-100000000000000000000.0
 25
-100000000000000000000.0
 35
-100000000000000000000.0
146
0.0
 13
0.0
 23
0.0
 33
0.0
 16
1.0
 26
0.0
 36
0.0
 17
0.0
 27
1.0
 37
0.0
 76
0
330
1B
  0
LAYOUT
  5
22
100
AcDbPlotSettings
  1

  2
none_device
  4

  6

 40
0.0
 41
0.0
 42
0.0
 43
0.0
 44
0.0
 45
0.0
 46
0.0
 47
0.0
 48
0.0
 49
0.0
140
0.0
141
0.0
142
1.0
143
1.0
 70
1712
 72
0
 73
0
 74
0
  7

 75
0
147
1.0
148
0.0
149
0.0
100
AcDbLayout
  1
Model
 70
1
 71
0
 10
0.0
 20
0.0
 11
12.0
 21
9.0
 12
0.0
 22
0.0
 32
0.0
 14
0.0
 24
0.0
 34
0.0
 15
0.0
 25
0.0
 35
0.0
146
0.0
 13
0.0
 23
0.0
 33
0.0
 16
1.0
 26
0.0
 36
0.0
 17
0.0
 27
1.0
 37
0.0
 76
0
330
1F
  0
LAYOUT
  5
26
100
AcDbPlotSettings
  1

  2
none_device
  4

  6

 40
0.0
 41
0.0
 42
0.0
 43
0.0
 44
0.0
 45
0.0
 46
0.0
 47
0.0
 48
0.0
 49
0.0
140
0.0
141
0.0
142
1.0
143
1.0
 70
688
 72
0
 73
0
 74
5
  7

 75
16
147
1.0
148
0.0
149
0.0
100
AcDbLayout
  1
Layout2
 70
1
 71
2
 10
0.0
 20
0.0
 11
12.0
 21
9.0
 12
0.0
 22
0.0
 32
0.0
 14
0.0
 24
0.0
 34
0.0
 15
0.0
 25
0.0
 35
0.0
146
0.0
 13
0.0
 23
0.0
 33
0.0
 16
1.0
 26
0.0
 36
0.0
 17
0.0
 27
1.0
 37
0.0
 76
0
330
23
  0
DICTIONARY
  5
EA
100
AcDbDictionary
281
1
  3
DIMASSOC
350
ED
  3
HIDETEXT
350
EC
  0
DICTIONARYVAR
  5
EC
100
DictionaryVariables
280
0
  1
2
  0
DICTIONARYVAR
  5
ED
100
DictionaryVariables
280
0
  1
1
  0
DICTIONARY
  5
EB
100
AcDbDictionary
281
1
  3
ColorSettings/BackgroundColor
350
EE
  3
ColorSettings/ColorMode
350
EF
  3
Grid/DisplayGrid00
350
F0
  3
Grid/DisplayGrid01
350
F1
  3
Grid/DisplayGrid02
350
F2
  3
Grid/DisplayGrid03
350
F3
  3
Grid/GridSpacingX00
350
F4
  3
Grid/GridSpacingX01
350
F5
  3
Grid/GridSpacingX02
350
F6
  3
Grid/GridSpacingX03
350
F7
  3
Grid/GridSpacingY00
350
F8
  3
Grid/GridSpacingY01
350
F9
  3
Grid/GridSpacingY02
350
FA
  3
Grid/GridSpacingY03
350
FB
  3
Grid/IsometricGrid00
350
FC
  3
Grid/IsometricGrid01
350
FD
  3
Grid/IsometricGrid02
350
FE
  3
Grid/IsometricGrid03
350
FF
  3
Grid/IsometricProjection00
350
100
  3
Grid/IsometricProjection01
350
101
  3
Grid/IsometricProjection02
350
102
  3
Grid/IsometricProjection03
350
103
  3
Grid/MetaGridSpacingX00
350
104
  3
Grid/MetaGridSpacingX01
350
105
  3
Grid/MetaGridSpacingX02
350
106
  3
Grid/MetaGridSpacingX03
350
107
  3
Grid/MetaGridSpacingY00
350
108
  3
Grid/MetaGridSpacingY01
350
109
  3
Grid/MetaGridSpacingY02
350
10A
  3
Grid/MetaGridSpacingY03
350
10B
  3
MultiPageSettings/Columns
350
10C
  3
MultiPageSettings/GlueMarginsBottom
350
10D
  3
MultiPageSettings/GlueMarginsLeft
350
10E
  3
MultiPageSettings/GlueMarginsRight
350
10F
  3
MultiPageSettings/GlueMarginsTop
350
110
  3
MultiPageSettings/PrintCropMarks
350
111
  3
MultiPageSettings/Rows
350
112
  3
PageSettings/OffsetX
350
113
  3
PageSettings/OffsetY
350
114
  3
PageSettings/PageOrientation
350
115
  3
PageSettings/PaperHeight
350
116
  3
PageSettings/PaperWidth
350
117
  3
PageSettings/Scale
350
118
  3
PageSettings/ShowPaperBorders
350
119
  3
QCADVersion
350
11A
  3
UnitSettings/PaperUnit
350
11B
  3
ViewportCenter
350
11C
  3
ViewportHeight
350
11D
  3
ViewportWidth
350
11E
  0
XRECORD
  5
EE
330
EB
100
AcDbXrecord
280
1
1000
White
  0
XRECORD
  5
EF
330
EB
100
AcDbXrecord
280
1
1000
FullColor
  0
XRECORD
  5
F0
330
EB
100
AcDbXrecord
280
1
290
1
  0
XRECORD
  5
F1
330
EB
100
AcDbXrecord
280
1
290
1
  0
XRECORD
  5
F2
330
EB
100
AcDbXrecord
280
1
290
1
  0
XRECORD
  5
F3
330
EB
100
AcDbXrecord
280
1
290
1
  0
XRECORD
  5
F4
330
EB
100
AcDbXrecord
280
1
1000
auto
  0
XRECORD
  5
F5
330
EB
100
AcDbXrecord
280
1
1000
auto
  0
XRECORD
  5
F6
330
EB
100
AcDbXrecord
280
1
1000
auto
  0
XRECORD
  5
F7
330
EB
100
AcDbXrecord
280
1
1000
auto
  0
XRECORD
  5
F8
330
EB
100
AcDbXrecord
280
1
1000
auto
  0
XRECORD
  5
F9
330
EB
100
AcDbXrecord
280
1
1000
auto
  0
XRECORD
  5
FA
330
EB
100
AcDbXrecord
280
1
1000
auto
  0
XRECORD
  5
FB
330
EB
100
AcDbXrecord
280
1
1000
auto
  0
XRECORD
  5
FC
330
EB
100
AcDbXrecord
280
1
290
0
  0
XRECORD
  5
FD
330
EB
100
AcDbXrecord
280
1
290
0
  0
XRECORD
  5
FE
330
EB
100
AcDbXrecord
280
1
290
0
  0
XRECORD
  5
FF
330
EB
100
AcDbXrecord
280
1
290
0
  0
XRECORD
  5
100
330
EB
100
AcDbXrecord
280
1
 90
65537
  0
XRECORD
  5
101
330
EB
100
AcDbXrecord
280
1
 90
65537
  0
XRECORD
  5
102
330
EB
100
AcDbXrecord
280
1
 90
65537
  0
XRECORD
  5
103
330
EB
100
AcDbXrecord
280
1
 90
65537
  0
XRECORD
  5
104
330
EB
100
AcDbXrecord
280
1
1000
auto
  0
XRECORD
  5
105
330
EB
100
AcDbXrecord
280
1
1000
auto
  0
XRECORD
  5
106
330
EB
100
AcDbXrecord
280
1
1000
auto
  0
XRECORD
  5
107
330
EB
100
AcDbXrecord
280
1
1000
auto
  0
XRECORD
  5
108
330
EB
100
AcDbXrecord
280
1
1000
auto
  0
XRECORD
  5
109
330
EB
100
AcDbXrecord
280
1
1000
auto
  0
XRECORD
  5
10A
330
EB
100
AcDbXrecord
280
1
1000
auto
  0
XRECORD
  5
10B
330
EB
100
AcDbXrecord
280
1
1000
auto
  0
XRECORD
  5
10C
330
EB
100
AcDbXrecord
280
1
 90
1
  0
XRECORD
  5
10D
330
EB
100
AcDbXrecord
280
1
 40
10.0
  0
XRECORD
  5
10E
330
EB
100
AcDbXrecord
280
1
 40
10.0
  0
XRECORD
  5
10F
330
EB
100
AcDbXrecord
280
1
 40
10.0
  0
XRECORD
  5
110
330
EB
100
AcDbXrecord
280
1
 40
10.0
  0
XRECORD
  5
111
330
EB
100
AcDbXrecord
280
1
290
0
  0
XRECORD
  5
112
330
EB
100
AcDbXrecord
280
1
 90
1
  0
XRECORD
  5
113
330
EB
100
AcDbXrecord
280
1
 40
0.0
  0
XRECORD
  5
114
330
EB
100
AcDbXrecord
280
1
 40
0.0
  0
XRECORD
  5
115
330
EB
100
AcDbXrecord
280
1
1000
Portrait
  0
XRECORD
  5
116
330
EB
100
AcDbXrecord
280
1
 40
297.0
  0
XRECORD
  5
117
330
EB
100
AcDbXrecord
280
1
 40
210.0
  0
XRECORD
  5
118
330
EB
100
AcDbXrecord
280
1
1000
1:1
  0
XRECORD
  5
119
330
EB
100
AcDbXrecord
280
1
290
1
  0
XRECORD
  5
11A
330
EB
100
AcDbXrecord
280
1
1000
3.23.0
  0
XRECORD
  5
11B
330
EB
100
AcDbXrecord
280
1
 90
4
  0
XRECORD
  5
11D
330
EB
100
AcDbXrecord
280
1
 40
229.1385940828402
  0
XRECORD
  5
11E
330
EB
100
AcDbXrecord
280
1
 40
487.07377988165672
  0
ENDSEC
  0
EOF
